<svg version="1.1" xmlns="http://www.w3.org/2000/svg" width="100%" height="100%" viewBox="0 0 108 108">
  <g transform="translate(0, -2)">
    <path fill="#dbdbdd" d="M110,56.001c0-15.152-6.259-28.827-16.311-38.633c-1.412-1.377-2.911-2.66-4.465-3.878 C80.057,6.316,68.543,2,56,2C26.177,2,2,26.178,2,56.001C2,85.824,26.177,110,56,110c12.543,0,24.057-4.314,33.224-11.489 c1.555-1.218,3.053-2.5,4.465-3.878C103.741,84.828,110,71.153,110, 56.001z M56,103.107c-26.016,0-47.106-21.09-47.106-47.106 S29.984,8.894,56,8.894c26.017,0,47.106,21.091,47.106,47.107S82.017,103.107,56,103.107z"/>
    <path fill="#cccdcf" d="M103.106,56.001c0-26.016-21.089-47.107-47.106-47.107c-26.016,0-47.106,21.091-47.106,47.107 S29.984,103.107,56,103.107C82.017,103.107,103.106,82.017,103.106,56.001z M56,33.884c12.215,0,22.117,9.902,22.117,22.117 c0,12.215-9.902,22.116-22.117,22.116s-22.117-9.901-22.117-22.116C33.883,43.786,43.785,33.884,56,33.884z"/>
    <circle fill="#bbbbbf" cx="56" cy="56" r="22.117"/>
  </g>
</svg>
